<svg xmlns="http://www.w3.org/2000/svg" x="0" y="0" data-name="Layer 1" viewBox="0 0 64 64"><title>Asteroid</title><path fill="#FFF" d="M63.29,26.17l-1.11-4.09a11.13,11.13,0,0,0-2-4.06l-4.79-6L52.88,8.83a11.29,11.29,0,0,0-4.64-3.5L37.15.83A11.3,11.3,0,0,0,26.28,2.15h0L24.21,3.66a9.12,9.12,0,0,1-1.48.87l-8.5,4c-.25.12-.51.23-.77.33l-3.3,1.22a11,11,0,0,0-2.84,1.54l-.1.07A11.28,11.28,0,0,0,3,18.28L1.7,23.89A10.69,10.69,0,0,0,1.43,26l-.25,7.25A8.09,8.09,0,0,1,1,34.62L.51,37.46a11.36,11.36,0,0,0,1,7L4.7,51A11.33,11.33,0,0,0,8,55l8.61,6.54a11.27,11.27,0,0,0,6,2.27l2.38.18c.29,0,.57,0,.86,0a12.22,12.22,0,0,0,1.35-.08l5.38-.65a9.27,9.27,0,0,1,2.17,0l2.76.31a11.26,11.26,0,0,0,8.19-2.3l2.12-1.66A10.46,10.46,0,0,0,49,58.47l7.28-7.67a11.17,11.17,0,0,0,2.21-3.38l4.27-10.09a11.18,11.18,0,0,0,.89-4.39V29.11A11.25,11.25,0,0,0,63.29,26.17Zm-1.55,6.77A9.29,9.29,0,0,1,61,36.58L56.73,46.67a9.09,9.09,0,0,1-1.82,2.79l-7.29,7.68a9.29,9.29,0,0,1-1,.94l-2.12,1.66a9.3,9.3,0,0,1-6.78,1.9l-2.77-.31a11.39,11.39,0,0,0-2.61,0L26.92,62a8.62,8.62,0,0,1-1.83,0l-2.38-.18A9.29,9.29,0,0,1,17.77,60L9.16,53.44a9.46,9.46,0,0,1-2.72-3.3L3.23,43.65a9.4,9.4,0,0,1-.82-5.83L2.94,35a11.7,11.7,0,0,0,.18-1.66l.25-7.25a9.21,9.21,0,0,1,.22-1.74l1.27-5.61a9.36,9.36,0,0,1,3.52-5.43l.1-.07a9.92,9.92,0,0,1,2.35-1.28l3.3-1.21a9.64,9.64,0,0,0,.93-.4l8.5-4a11.15,11.15,0,0,0,1.79-1.07l2.07-1.5a9.33,9.33,0,0,1,9-1.09l11.09,4.5A9.24,9.24,0,0,1,51.35,10l7.26,9.19a9.33,9.33,0,0,1,1.7,3.37l1.1,4.08a9.2,9.2,0,0,1,.33,2.44Z"/><path fill="#FFF" d="M30.69,15.29c-1.48-2.56-5.67-2.82-9.52-.59s-5.73,6-4.25,8.54a4.76,4.76,0,0,0,4.34,2.11,10.63,10.63,0,0,0,5.18-1.51C30.3,21.61,32.16,17.86,30.69,15.29Zm-12.09,7c-.9-1.57.72-4.26,3.54-5.89a8.76,8.76,0,0,1,4.25-1.26A2.88,2.88,0,0,1,29,16.26c.9,1.57-.72,4.27-3.54,5.9S19.51,23.84,18.6,22.27Z"/><path fill="#FFF" d="M56.66,21.82c-1.4-.81-3.17-.68-5,.36a12.28,12.28,0,0,0-4.37,4.57c-2.52,4.35-2.33,9,.41,10.59a4,4,0,0,0,2,.52,6.16,6.16,0,0,0,3-.89,12.32,12.32,0,0,0,4.37-4.56C59.59,28.05,59.4,23.4,56.66,21.82Zm-1.27,9.62a10.38,10.38,0,0,1-3.65,3.85c-.7.39-2,1-3.08.37-1.55-.9-1.8-4.3.3-7.94a10.38,10.38,0,0,1,3.65-3.85,4.47,4.47,0,0,1,2-.63,2,2,0,0,1,1,.26h0C57.24,24.39,57.49,27.8,55.39,31.44Z"/><path fill="#FFF" d="M13,31c-1.89-.88-4.37.58-5.64,3.32A7,7,0,0,0,6.69,38a3.33,3.33,0,0,0,1.77,2.75A2.69,2.69,0,0,0,9.62,41a3.8,3.8,0,0,0,2.08-.68,6.91,6.91,0,0,0,2.39-2.89C15.36,34.68,14.88,31.85,13,31Zm-.66,5.63a5.05,5.05,0,0,1-1.69,2.09A1.5,1.5,0,0,1,9.27,39a1.51,1.51,0,0,1-.66-1.23,5.17,5.17,0,0,1,.5-2.64c.72-1.54,1.91-2.46,2.71-2.46a.78.78,0,0,1,.35.08C12.93,33.08,13.16,34.81,12.33,36.6Z"/><path fill="#FFF" d="M30.69,45.89A7.4,7.4,0,0,0,27,47.08,3.33,3.33,0,0,0,25.38,50c.13,2,2.37,3.35,5.22,3.35l.59,0a7.4,7.4,0,0,0,3.68-1.19,3.33,3.33,0,0,0,1.63-2.89C36.36,47.14,33.81,45.68,30.69,45.89Zm3.08,4.62a5.47,5.47,0,0,1-2.71.86c-2.07.14-3.69-.69-3.75-1.53a1.5,1.5,0,0,1,.8-1.16,5.47,5.47,0,0,1,2.71-.86h.46c1.85,0,3.23.77,3.29,1.54A1.5,1.5,0,0,1,33.77,50.51Z"/><path fill="#FFF" d="M33.41,7.44c5.73.31,10,2.1,13,5.46a.93.93,0,0,0,.72.32,1,1,0,0,0,.65-.24,1,1,0,0,0,.07-1.37C44.53,7.9,39.7,5.84,33.52,5.5a1,1,0,0,0-.11,1.94Z"/><path fill="#FFF" d="M7.05,22.13a.84.84,0,0,0,.27,0,1,1,0,0,0,.93-.69,11.31,11.31,0,0,1,5.25-6.84,1,1,0,1,0-1-1.67,13.39,13.39,0,0,0-6.12,8A1,1,0,0,0,7.05,22.13Z"/><path fill="#FFF" d="M25.47,39.48a1,1,0,0,0,.92.66.81.81,0,0,0,.31,0c5.48-1.83,9.21-5.05,11.1-9.59A1,1,0,1,0,36,29.75c-1.69,4.06-4.93,6.84-9.92,8.5A1,1,0,0,0,25.47,39.48Z"/><path fill="#FFF" d="M49.71,46.64A23.3,23.3,0,0,0,37.79,57a1,1,0,0,0,.33,1.33.93.93,0,0,0,.5.14,1,1,0,0,0,.83-.47A21.39,21.39,0,0,1,50.4,48.46a1,1,0,0,0-.69-1.82Z"/><path fill="#FFF" d="M23.74,58.15c-2.95-1.28-5.66-4-8.28-8.25a1,1,0,0,0-1.65,1c2.83,4.62,5.83,7.57,9.16,9a.91.91,0,0,0,.39.08,1,1,0,0,0,.38-1.86Z"/><path fill="#FFF" d="M38.27,15.5a6.91,6.91,0,0,0-2.39,2.89C34.61,21.13,35.1,24,37,24.84a2.69,2.69,0,0,0,1.16.25,3.79,3.79,0,0,0,2.08-.67,7,7,0,0,0,2.39-2.9c1.27-2.74.79-5.57-1.1-6.45A3.36,3.36,0,0,0,38.27,15.5Zm2.59,5.21a5.12,5.12,0,0,1-1.69,2.09,1.49,1.49,0,0,1-1.37.28c-.76-.35-1-2.08-.16-3.87a5.07,5.07,0,0,1,1.7-2.09,1.88,1.88,0,0,1,1-.36.8.8,0,0,1,.36.07C41.46,17.19,41.69,18.92,40.86,20.71Z"/></svg>